PathFileType	4	(X/Y/Z)	./resultDataOpenSim/trcMotMarkerGrf/sub06/qtm-02-04.trc
DataRate	CameraRate	NumFrames	NumMarkers	Units	OrigDataRate	OrigDataStartFrame	OrigNumFrames
250.000000	250.000000	10	24	m	250.000000	124	492
Frame#	Time	L.Toe.Tip			R.Toe.Tip			L.Ankle.Lat			R.Ankle.Lat			L.Ankle.Med			R.Ankle.Med			L.Heel			R.Heel			L.Knee.Lat			R.Knee.Lat			L.Knee.Med			R.Knee.Med			L.Thigh.Upper			R.Thigh.Upper			L.ASIS			R.ASIS			V.Sacral			L.Acromium			R.Acromium			C7			L.Elbow			R.Elbow			L.Wrist.Lat			R.Wrist.Lat
		X1	Y1	Z1	X2	Y2	Z2	X3	Y3	Z3	X4	Y4	Z4	X5	Y5	Z5	X6	Y6	Z6	X7	Y7	Z7	X8	Y8	Z8	X9	Y9	Z9	X10	Y10	Z10	X11	Y11	Z11	X12	Y12	Z12	X13	Y13	Z13	X14	Y14	Z14	X15	Y15	Z15	X16	Y16	Z16	X17	Y17	Z17	X18	Y18	Z18	X19	Y19	Z19	X20	Y20	Z20	X21	Y21	Z21	X22	Y22	Z22	X23	Y23	Z23	X24	Y24	Z24

124	0.492	-0.28793971	0.078295741	-0.056662392	-0.74443967	0.03655259	0.12583043	-0.41379371	0.090301181	-0.063405956	-0.87859456	0.069216927	0.13912763	-0.40390028	0.10800509	0.021543219	-0.8522762	0.086082711	0.053803664	-0.47286039	0.047635731	-0.0062391492	-0.93192771	0.048415545	0.074474341	-0.41598782	0.46842807	-0.076637822	-0.73732146	0.43134705	0.17176287	-0.42899057	0.46097236	0.045022186	-0.76526007	0.4323812	0.041492861	-0.61185869	0.81348808	-0.11613252	-0.66270452	0.7935169	0.23677035	-0.54868724	0.85316153	-0.061195518	-0.55001193	0.83949921	0.18409754	-0.73430836	0.92487267	0.063052237	-0.60860229	1.3293425	-0.12797733	-0.58451685	1.3243292	0.23137249	-0.67213187	1.3633801	0.055638676	-0.71416116	1.0312463	-0.16938386	-0.64258	1.0169187	0.33251139	-0.62073191	0.80837367	-0.2143176	-0.42758198	0.88520217	0.32786107
125	0.496	-0.26893717	0.080165238	-0.056057784	-0.74439488	0.036455466	0.12583583	-0.39529402	0.089847852	-0.063512506	-0.87833844	0.069654743	0.13900258	-0.38622014	0.10767586	0.021398313	-0.85183541	0.086390101	0.053631655	-0.45342324	0.045899583	-0.006567705	-0.93168783	0.049106049	0.074180223	-0.40866659	0.46723215	-0.076116662	-0.73436957	0.43075368	0.1718624	-0.42177626	0.45939639	0.045696999	-0.76183604	0.43186714	0.04137842	-0.60422426	0.81178957	-0.11613759	-0.65713049	0.79223382	0.23680698	-0.541741	0.85123247	-0.061312505	-0.54388339	0.83757882	0.18428846	-0.72777903	0.9229383	0.062381668	-0.60268584	1.3274728	-0.12810675	-0.57787975	1.3225793	0.23131709	-0.66555705	1.3617024	0.055617971	-0.70898407	1.0298355	-0.16890724	-0.63437479	1.015018	0.33306695	-0.61706681	0.80663976	-0.21492999	-0.41841629	0.88538027	0.32724364
126	0.5	-0.2501866	0.082021585	-0.055464164	-0.74434602	0.03633566	0.12582177	-0.37699988	0.089624483	-0.063658962	-0.87805272	0.07011673	0.13885952	-0.36875545	0.10756378	0.021159015	-0.85135784	0.086706851	0.053467819	-0.43435574	0.044554579	-0.0068322604	-0.93141601	0.049843431	0.073847357	-0.40137407	0.46587986	-0.075545835	-0.73127206	0.43012348	0.17192606	-0.41455711	0.45765497	0.046410863	-0.75828925	0.43130031	0.041246271	-0.59681656	0.8099651	-0.11617484	-0.65148132	0.79091589	0.23678058	-0.53474917	0.84922227	-0.061413311	-0.53771903	0.83564193	0.18448328	-0.72135215	0.92100183	0.061622565	-0.59670294	1.3255396	-0.12824795	-0.57123901	1.3207726	0.23124938	-0.65893436	1.3600532	0.055539412	-0.70393184	1.028357	-0.16843199	-0.62617691	1.0130613	0.33359023	-0.61344431	0.80479424	-0.21554548	-0.40925924	0.88546162	0.32654438
127	0.504	-0.23173975	0.083872756	-0.054914817	-0.74428617	0.036234738	0.1257976	-0.35894175	0.089630949	-0.063840597	-0.87772584	0.070624334	0.13869816	-0.35147479	0.10768	0.02087405	-0.85083449	0.087031485	0.053322438	-0.415805	0.043606695	-0.0069059089	-0.93115565	0.050632844	0.073573724	-0.39410488	0.46439817	-0.074910779	-0.72799723	0.42946569	0.17195069	-0.40732132	0.45577195	0.047174139	-0.75462024	0.43069088	0.041094519	-0.58964836	0.80803325	-0.11624375	-0.6457344	0.78959216	0.23669137	-0.52771269	0.8471439	-0.061506295	-0.53149642	0.83369905	0.18465262	-0.71493121	0.9190835	0.060929691	-0.59062777	1.3235423	-0.12839604	-0.5645893	1.3189028	0.23116281	-0.65248023	1.3584508	0.055465316	-0.69890043	1.0268009	-0.16798942	-0.61806237	1.0110609	0.33411354	-0.6098405	0.80291086	-0.21619971	-0.40013785	0.88545033	0.32582944
128	0.508	-0.21364966	0.085732572	-0.054407266	-0.74421299	0.036171788	0.12576962	-0.34119691	0.089855993	-0.064050696	-0.87735818	0.071187089	0.13852347	-0.3344211	0.10801527	0.020559147	-0.85027507	0.087363145	0.053175438	-0.39779838	0.043016325	-0.0069065523	-0.93094165	0.051477125	0.073438728	-0.38685299	0.46281308	-0.074214573	-0.72452365	0.42879398	0.17195173	-0.40005779	0.45378183	0.048000024	-0.75083204	0.43005115	0.040920681	-0.58250417	0.80601854	-0.11632272	-0.63988966	0.78825291	0.23656939	-0.52063071	0.84499993	-0.061599892	-0.52518769	0.83176857	0.18475393	-0.70826548	0.91720249	0.060685988	-0.58450484	1.3214985	-0.1285583	-0.5579435	1.3169619	0.23105377	-0.64621486	1.356837	0.055433605	-0.69379345	1.0251812	-0.1675788	-0.61000184	1.0090163	0.33462692	-0.60625785	0.80099941	-0.21688978	-0.39109149	0.88536515	0.32516996
129	0.512	-0.19597799	0.087613473	-0.053915819	-0.74413102	0.036136804	0.12573793	-0.3238634	0.090265332	-0.064284581	-0.87691951	0.0718022	0.13834627	-0.31768707	0.1085344	0.020215874	-0.8496941	0.08770296	0.053012291	-0.38026066	0.042681481	-0.0070683201	-0.93075795	0.052380795	0.073406413	-0.37961934	0.46113242	-0.073478467	-0.72085928	0.42811361	0.1719399	-0.39275348	0.45171151	0.04889816	-0.74692994	0.42939259	0.040725649	-0.57523133	0.80393133	-0.11639382	-0.63395132	0.78682883	0.23645022	-0.51350057	0.84279127	-0.061694442	-0.51877711	0.82985555	0.18478864	-0.70110929	0.91534048	0.061150299	-0.57836898	1.3194251	-0.12873976	-0.55132715	1.3149525	0.2309232	-0.63997809	1.3551429	0.055427788	-0.68858803	1.0235186	-0.16720631	-0.60193918	1.0069312	0.33510636	-0.60282334	0.79900371	-0.21762649	-0.3821375	0.88522176	0.32458205
130	0.516	-0.1788068	0.089542508	-0.053429018	-0.74404434	0.036114776	0.12570183	-0.30701297	0.090813205	-0.064540042	-0.87633843	0.07246216	0.13817272	-0.30141099	0.10916731	0.01983183	-0.8490998	0.088055377	0.052835945	-0.36313956	0.042495186	-0.0074683305	-0.93054849	0.053343088	0.073352733	-0.37240481	0.45935803	-0.072725075	-0.71703868	0.42740933	0.17190718	-0.38539461	0.44957241	0.049875925	-0.74291598	0.42871955	0.040513637	-0.56783958	0.80176925	-0.11646235	-0.62792425	0.78527281	0.23635215	-0.5063262	0.84052643	-0.061786366	-0.51229506	0.82793656	0.18481497	-0.69343219	0.91340815	0.061980952	-0.57221493	1.3173253	-0.12894337	-0.54473171	1.3129	0.23077647	-0.63364712	1.3533601	0.055412033	-0.68329979	1.0218215	-0.16687917	-0.59385384	1.0048172	0.33553577	-0.59957671	0.79691419	-0.21841557	-0.37326363	0.88501701	0.32403426
131	0.52	-0.16222104	0.091577214	-0.052955837	-0.74395355	0.036095579	0.12566265	-0.29069828	0.09145541	-0.064811078	-0.87559163	0.073160997	0.13800209	-0.28574736	0.10982586	0.019398972	-0.84848589	0.088429047	0.052657491	-0.34641892	0.042380964	-0.0079997565	-0.93027776	0.054357981	0.073205548	-0.36516318	0.4575107	-0.071961403	-0.71310735	0.42665367	0.17183833	-0.37798597	0.44737514	0.050923017	-0.73878836	0.42802918	0.040289002	-0.56040689	0.79952612	-0.11654869	-0.62181642	0.7836071	0.23627015	-0.49912446	0.83821955	-0.061871971	-0.50582388	0.82598246	0.18491132	-0.68555411	0.91134664	0.062411853	-0.5660223	1.3151973	-0.12917478	-0.53810652	1.3108403	0.23061781	-0.62720789	1.3515196	0.055360871	-0.67794338	1.020093	-0.16658569	-0.58577087	1.0026858	0.33591483	-0.59630492	0.79480098	-0.21920283	-0.36442635	0.8847314	0.32347826
132	0.524	-0.14628535	0.093786257	-0.052507246	-0.74386443	0.036067564	0.12562358	-0.27496305	0.092153526	-0.065075137	-0.87482463	0.073888763	0.13783607	-0.27077321	0.11045551	0.018972151	-0.84783347	0.088831115	0.05248425	-0.33010841	0.042269245	-0.0085384423	-0.92993925	0.055421642	0.072969792	-0.35778365	0.45562911	-0.071177479	-0.70909127	0.425836	0.17173161	-0.37057344	0.4451446	0.05197993	-0.73454572	0.42732104	0.040051607	-0.55296756	0.79720423	-0.11666305	-0.61562102	0.78186423	0.23616514	-0.49190682	0.83588108	-0.061951214	-0.49942362	0.82398187	0.18512969	-0.67794095	0.90923179	0.061898707	-0.55978336	1.3130442	-0.129437	-0.53141566	1.3087914	0.23044688	-0.62069924	1.3496489	0.055265083	-0.67252424	1.0183366	-0.16630801	-0.57773156	1.000541	0.33625554	-0.59268616	0.79274417	-0.21989662	-0.35556234	0.88434555	0.32287043
133	0.528	-0.13103515	0.096207131	-0.052079658	-0.74379704	0.036011203	0.12559074	-0.25983618	0.09287375	-0.065294375	-0.87427083	0.074630344	0.13768138	-0.25646188	0.11104795	0.018660348	-0.84712468	0.089264133	0.052319377	-0.31427722	0.042079242	-0.0090632761	-0.92952189	0.056533157	0.072649065	-0.35021267	0.45374135	-0.070376801	-0.70497377	0.42497547	0.1716068	-0.3632216	0.44290881	0.052958976	-0.73018645	0.42659944	0.039800221	-0.54549247	0.79481759	-0.11679512	-0.6093113	0.78004055	0.23597185	-0.48464275	0.83351345	-0.062030244	-0.49305699	0.82194442	0.18546333	-0.67088661	0.90720832	0.060466773	-0.55350608	1.3108724	-0.12972431	-0.52466984	1.3067496	0.23026236	-0.61416277	1.3477576	0.055127278	-0.66704204	1.0165521	-0.16603809	-0.56975229	0.99837994	0.33656667	-0.58851128	0.79077681	-0.22042827	-0.34667591	0.8838637	0.32221283
